<svg width="500" height="530" viewBox="0 0 500 530" fill="none" xmlns="http://www.w3.org/2000/svg">
<path d="M250 454C372.607 454 472 354.607 472 232C472 109.393 372.607 10 250 10C127.393 10 28 109.393 28 232C28 354.607 127.393 454 250 454Z" fill="#1B2749"/>
<path d="M98 221.5C99.933 221.5 101.5 219.933 101.5 218C101.5 216.067 99.933 214.5 98 214.5C96.067 214.5 94.5 216.067 94.5 218C94.5 219.933 96.067 221.5 98 221.5Z" fill="white"/>
<path d="M178 59C179.657 59 181 57.6569 181 56C181 54.3431 179.657 53 178 53C176.343 53 175 54.3431 175 56C175 57.6569 176.343 59 178 59Z" fill="white"/>
<path d="M270 53C271.657 53 273 51.6569 273 50C273 48.3431 271.657 47 270 47C268.343 47 267 48.3431 267 50C267 51.6569 268.343 53 270 53Z" fill="white"/>
<path opacity="0.75" d="M330 70C331.105 70 332 69.1046 332 68C332 66.8954 331.105 66 330 66C328.895 66 328 66.8954 328 68C328 69.1046 328.895 70 330 70Z" fill="white"/>
<path opacity="0.7" d="M144 154C145.105 154 146 153.105 146 152C146 150.895 145.105 150 144 150C142.895 150 142 150.895 142 152C142 153.105 142.895 154 144 154Z" fill="white"/>
<path d="M415 211.5C416.933 211.5 418.5 209.933 418.5 208C418.5 206.067 416.933 204.5 415 204.5C413.067 204.5 411.5 206.067 411.5 208C411.5 209.933 413.067 211.5 415 211.5Z" fill="white"/>
<path opacity="0.65" d="M200 87C201.105 87 202 86.1046 202 85C202 83.8954 201.105 83 200 83C198.895 83 198 83.8954 198 85C198 86.1046 198.895 87 200 87Z" fill="white"/>
<path d="M168 94V136" stroke="white" stroke-width="1.8" stroke-linecap="round"/>
<path d="M147 115H189" stroke="white" stroke-width="1.8" stroke-linecap="round"/>
<path d="M157 104L179 126" stroke="white" stroke-width="0.9" stroke-linecap="round"/>
<path d="M179 104L157 126" stroke="white" stroke-width="0.9" stroke-linecap="round"/>
<path d="M373 84V136" stroke="white" stroke-width="2" stroke-linecap="round"/>
<path d="M347 110H399" stroke="white" stroke-width="2" stroke-linecap="round"/>
<path d="M360 97L386 123" stroke="white" stroke-linecap="round"/>
<path d="M386 97L360 123" stroke="white" stroke-linecap="round"/>
<path d="M152 275L82 504H418L348 275H152Z" fill="white"/>
<mask id="mask0_2_2" style="mask-type:luminance" maskUnits="userSpaceOnUse" x="82" y="275" width="336" height="229">
<path d="M152 275L82 504H418L348 275H152Z" fill="white"/>
</mask>
<g mask="url(#mask0_2_2)">
<path d="M435 288H75V295.5H435V288Z" fill="#1B2749"/>
<path d="M435 303H75V310.5H435V303Z" fill="#1B2749"/>
<path d="M435 318H75V325.5H435V318Z" fill="#1B2749"/>
<path d="M435 333H75V340.5H435V333Z" fill="#1B2749"/>
<path d="M435 348H75V355.5H435V348Z" fill="#1B2749"/>
<path d="M435 363H75V370.5H435V363Z" fill="#1B2749"/>
<path d="M435 378H75V385.5H435V378Z" fill="#1B2749"/>
<path d="M435 393H75V400.5H435V393Z" fill="#1B2749"/>
<path d="M435 408H75V415.5H435V408Z" fill="#1B2749"/>
<path d="M435 423H75V430.5H435V423Z" fill="#1B2749"/>
</g>
<path d="M356 260H144V275H356V260Z" fill="#1B2749"/>
<path d="M354 244H146C144.895 244 144 244.895 144 246V260C144 261.105 144.895 262 146 262H354C355.105 262 356 261.105 356 260V246C356 244.895 355.105 244 354 244Z" fill="white"/>
<path d="M156 257C157 204.607 186 170.526 250 169C314 170.526 343 204.607 344 257H156Z" fill="white"/>
<path d="M234.531 168.312C229.375 181.355 221.125 216.83 217 257H236.594C239.688 216.83 244.844 181.355 250 168.312H234.531Z" fill="#1B2749"/>
</svg>
